<svg xmlns="http://www.w3.org/2000/svg" xmlns:xlink="http://www.w3.org/1999/xlink" width="90" zoomAndPan="magnify" viewBox="0 0 67.5 30.000001" height="40" preserveAspectRatio="xMidYMid meet" version="1.0"><defs><g/><clipPath id="00efd2cd96"><path d="M 25.1875 4.105469 L 35.59375 4.105469 L 35.59375 14.515625 L 25.1875 14.515625 Z M 25.1875 4.105469 " clip-rule="nonzero"/></clipPath><clipPath id="f9b4210aa1"><path d="M 30.390625 4.105469 C 27.515625 4.105469 25.1875 6.4375 25.1875 9.3125 C 25.1875 12.1875 27.515625 14.515625 30.390625 14.515625 C 33.265625 14.515625 35.59375 12.1875 35.59375 9.3125 C 35.59375 6.4375 33.265625 4.105469 30.390625 4.105469 Z M 30.390625 4.105469 " clip-rule="nonzero"/></clipPath><clipPath id="19c621cf2d"><path d="M 25.164062 4.082031 L 35.324219 4.082031 L 35.324219 14.246094 L 25.164062 14.246094 Z M 25.164062 4.082031 " clip-rule="nonzero"/></clipPath><clipPath id="12d07a6a07"><path d="M 28 6 L 35.324219 6 L 35.324219 14 L 28 14 Z M 28 6 " clip-rule="nonzero"/></clipPath></defs><g fill="#000000" fill-opacity="1"><g transform="translate(9.475467, 13.728088)"><g><path d="M 12.015625 -8.640625 C 13.066406 -8.640625 13.898438 -8.320312 14.515625 -7.6875 C 15.140625 -7.0625 15.453125 -6.117188 15.453125 -4.859375 L 15.453125 0 L 12.46875 0 L 12.46875 -4.375 C 12.46875 -4.96875 12.351562 -5.40625 12.125 -5.6875 C 11.90625 -5.96875 11.59375 -6.109375 11.1875 -6.109375 C 10.738281 -6.109375 10.378906 -5.953125 10.109375 -5.640625 C 9.835938 -5.328125 9.703125 -4.851562 9.703125 -4.21875 L 9.703125 0 L 6.71875 0 L 6.71875 -4.375 C 6.71875 -5.53125 6.289062 -6.109375 5.4375 -6.109375 C 4.976562 -6.109375 4.613281 -5.953125 4.34375 -5.640625 C 4.070312 -5.328125 3.9375 -4.851562 3.9375 -4.21875 L 3.9375 0 L 0.953125 0 L 0.953125 -8.5 L 3.796875 -8.5 L 3.796875 -7.59375 C 4.109375 -7.945312 4.476562 -8.207031 4.90625 -8.375 C 5.34375 -8.550781 5.816406 -8.640625 6.328125 -8.640625 C 6.921875 -8.640625 7.453125 -8.53125 7.921875 -8.3125 C 8.398438 -8.09375 8.785156 -7.753906 9.078125 -7.296875 C 9.410156 -7.734375 9.832031 -8.066406 10.34375 -8.296875 C 10.851562 -8.523438 11.410156 -8.640625 12.015625 -8.640625 Z M 12.015625 -8.640625 "/></g></g></g><g fill="#000000" fill-opacity="1"><g transform="translate(25.09872, 13.728088)"><g><path d="M 5.21875 0.140625 C 4.3125 0.140625 3.488281 -0.046875 2.75 -0.421875 C 2.019531 -0.796875 1.445312 -1.316406 1.03125 -1.984375 C 0.625 -2.660156 0.421875 -3.421875 0.421875 -4.265625 C 0.421875 -5.097656 0.625 -5.847656 1.03125 -6.515625 C 1.445312 -7.179688 2.019531 -7.703125 2.75 -8.078125 C 3.476562 -8.453125 4.300781 -8.640625 5.21875 -8.640625 C 6.132812 -8.640625 6.957031 -8.453125 7.6875 -8.078125 C 8.425781 -7.703125 9 -7.179688 9.40625 -6.515625 C 9.8125 -5.859375 10.015625 -5.109375 10.015625 -4.265625 C 10.015625 -3.421875 9.8125 -2.660156 9.40625 -1.984375 C 9 -1.316406 8.425781 -0.796875 7.6875 -0.421875 C 6.957031 -0.046875 6.132812 0.140625 5.21875 0.140625 Z M 5.21875 -2.21875 C 5.738281 -2.21875 6.164062 -2.398438 6.5 -2.765625 C 6.832031 -3.128906 7 -3.628906 7 -4.265625 C 7 -4.890625 6.832031 -5.378906 6.5 -5.734375 C 6.164062 -6.085938 5.738281 -6.265625 5.21875 -6.265625 C 4.695312 -6.265625 4.269531 -6.085938 3.9375 -5.734375 C 3.601562 -5.378906 3.4375 -4.890625 3.4375 -4.265625 C 3.4375 -3.628906 3.601562 -3.128906 3.9375 -2.765625 C 4.269531 -2.398438 4.695312 -2.21875 5.21875 -2.21875 Z M 5.21875 -2.21875 "/></g></g></g><g fill="#000000" fill-opacity="1"><g transform="translate(34.782884, 13.728088)"><g><path d="M 9.90625 -8.5 L 6.390625 0 L 3.328125 0 L -0.171875 -8.5 L 2.890625 -8.5 L 4.921875 -3.3125 L 7.0625 -8.5 Z M 9.90625 -8.5 "/></g></g></g><g fill="#000000" fill-opacity="1"><g transform="translate(43.74621, 13.728088)"><g><path d="M 0.953125 -8.5 L 3.9375 -8.5 L 3.9375 0 L 0.953125 0 Z M 2.4375 -9.4375 C 1.894531 -9.4375 1.457031 -9.585938 1.125 -9.890625 C 0.789062 -10.191406 0.625 -10.566406 0.625 -11.015625 C 0.625 -11.460938 0.789062 -11.835938 1.125 -12.140625 C 1.457031 -12.441406 1.894531 -12.59375 2.4375 -12.59375 C 2.976562 -12.59375 3.414062 -12.445312 3.75 -12.15625 C 4.082031 -11.875 4.25 -11.507812 4.25 -11.0625 C 4.25 -10.59375 4.082031 -10.203125 3.75 -9.890625 C 3.414062 -9.585938 2.976562 -9.4375 2.4375 -9.4375 Z M 2.4375 -9.4375 "/></g></g></g><g fill="#000000" fill-opacity="1"><g transform="translate(47.898718, 13.728088)"><g><path d="M 9.640625 -4.234375 C 9.640625 -4.210938 9.625 -3.96875 9.59375 -3.5 L 3.421875 -3.5 C 3.546875 -3.0625 3.785156 -2.722656 4.140625 -2.484375 C 4.503906 -2.242188 4.957031 -2.125 5.5 -2.125 C 5.90625 -2.125 6.253906 -2.179688 6.546875 -2.296875 C 6.847656 -2.410156 7.148438 -2.601562 7.453125 -2.875 L 9.03125 -1.234375 C 8.195312 -0.316406 6.988281 0.140625 5.40625 0.140625 C 4.414062 0.140625 3.539062 -0.046875 2.78125 -0.421875 C 2.03125 -0.796875 1.445312 -1.316406 1.03125 -1.984375 C 0.625 -2.660156 0.421875 -3.421875 0.421875 -4.265625 C 0.421875 -5.097656 0.617188 -5.84375 1.015625 -6.5 C 1.421875 -7.164062 1.976562 -7.6875 2.6875 -8.0625 C 3.40625 -8.445312 4.207031 -8.640625 5.09375 -8.640625 C 5.9375 -8.640625 6.703125 -8.460938 7.390625 -8.109375 C 8.085938 -7.753906 8.632812 -7.242188 9.03125 -6.578125 C 9.4375 -5.921875 9.640625 -5.140625 9.640625 -4.234375 Z M 5.109375 -6.515625 C 4.648438 -6.515625 4.265625 -6.382812 3.953125 -6.125 C 3.648438 -5.863281 3.457031 -5.507812 3.375 -5.0625 L 6.84375 -5.0625 C 6.757812 -5.507812 6.5625 -5.863281 6.25 -6.125 C 5.945312 -6.382812 5.566406 -6.515625 5.109375 -6.515625 Z M 5.109375 -6.515625 "/></g></g></g><g clip-path="url(#00efd2cd96)"><g clip-path="url(#f9b4210aa1)"><path fill="#ffffff" d="M 25.1875 4.105469 L 35.59375 4.105469 L 35.59375 14.515625 L 25.1875 14.515625 Z M 25.1875 4.105469 " fill-opacity="1" fill-rule="nonzero"/></g></g><g clip-path="url(#19c621cf2d)"><path fill="#000000" d="M 34.429688 11.636719 C 34.128906 12.15625 33.527344 12.386719 32.976562 12.242188 L 31.460938 13.757812 L 31.296875 13.59375 C 31.0625 13.832031 30.734375 13.976562 30.375 13.976562 C 29.65625 13.976562 29.074219 13.394531 29.074219 12.679688 C 29.074219 12.132812 29.414062 11.664062 29.890625 11.472656 L 29.417969 11 L 29.222656 11.191406 L 29.058594 11.359375 L 28.738281 11.035156 C 28.722656 11.46875 28.492188 11.878906 28.089844 12.113281 C 27.46875 12.46875 26.675781 12.257812 26.316406 11.636719 C 25.960938 11.015625 26.171875 10.222656 26.792969 9.863281 C 27.328125 9.554688 27.992188 9.667969 28.394531 10.105469 L 31.96875 6.535156 L 32.132812 6.367188 L 32.296875 6.535156 L 32.398438 6.632812 L 32.417969 6.652344 C 32.488281 6.585938 32.570312 6.527344 32.65625 6.476562 C 33.277344 6.121094 34.070312 6.332031 34.429688 6.953125 C 34.789062 7.574219 34.574219 8.367188 33.953125 8.726562 C 33.917969 8.75 33.875 8.769531 33.835938 8.789062 L 34.175781 9.125 L 34.535156 8.769531 L 35.492188 9.726562 L 34.558594 10.65625 C 34.644531 10.976562 34.609375 11.328125 34.429688 11.636719 Z M 26.316406 6.953125 C 26.675781 6.332031 27.46875 6.121094 28.089844 6.476562 C 28.710938 6.835938 28.925781 7.628906 28.566406 8.25 C 28.207031 8.871094 27.414062 9.085938 26.792969 8.726562 C 26.171875 8.367188 25.960938 7.574219 26.316406 6.953125 Z M 30.375 4.613281 C 31.089844 4.613281 31.671875 5.191406 31.671875 5.910156 C 31.671875 6.625 31.089844 7.207031 30.375 7.207031 C 29.65625 7.207031 29.074219 6.625 29.074219 5.910156 C 29.074219 5.191406 29.65625 4.613281 30.375 4.613281 Z M 30.375 4.085938 C 27.496094 4.085938 25.164062 6.417969 25.164062 9.292969 C 25.164062 12.171875 27.496094 14.503906 30.375 14.503906 C 33.25 14.503906 35.585938 12.171875 35.585938 9.292969 C 35.585938 6.417969 33.25 4.085938 30.375 4.085938 " fill-opacity="1" fill-rule="nonzero"/></g><g clip-path="url(#12d07a6a07)"><path fill="#000000" d="M 34.628906 10.058594 L 34.4375 10.25 C 34.429688 10.257812 34.421875 10.261719 34.410156 10.261719 C 34.398438 10.261719 34.386719 10.257812 34.378906 10.246094 L 34.359375 10.230469 L 34.058594 9.929688 C 34.042969 9.914062 34.042969 9.886719 34.058594 9.867188 L 34.25 9.679688 C 34.257812 9.671875 34.269531 9.667969 34.277344 9.667969 C 34.289062 9.667969 34.300781 9.671875 34.308594 9.679688 L 34.628906 9.996094 C 34.644531 10.015625 34.644531 10.042969 34.628906 10.058594 Z M 34.097656 10.589844 L 33.910156 10.777344 C 33.902344 10.785156 33.890625 10.789062 33.878906 10.789062 C 33.867188 10.789062 33.855469 10.785156 33.847656 10.777344 L 33.53125 10.460938 C 33.511719 10.441406 33.511719 10.414062 33.53125 10.398438 L 33.71875 10.207031 C 33.726562 10.199219 33.738281 10.195312 33.75 10.195312 C 33.761719 10.195312 33.773438 10.199219 33.78125 10.207031 L 34.097656 10.527344 C 34.117188 10.542969 34.117188 10.570312 34.097656 10.589844 Z M 33.570312 11.117188 L 33.378906 11.308594 C 33.371094 11.316406 33.359375 11.320312 33.351562 11.320312 C 33.339844 11.320312 33.328125 11.316406 33.320312 11.308594 L 33 10.988281 C 32.984375 10.972656 32.984375 10.945312 33 10.925781 L 33.191406 10.738281 C 33.199219 10.730469 33.210938 10.726562 33.21875 10.726562 C 33.230469 10.726562 33.242188 10.730469 33.25 10.738281 L 33.570312 11.054688 C 33.585938 11.074219 33.585938 11.101562 33.570312 11.117188 Z M 33.039062 11.644531 L 32.851562 11.835938 C 32.84375 11.84375 32.832031 11.847656 32.820312 11.847656 C 32.808594 11.847656 32.796875 11.84375 32.789062 11.835938 L 32.472656 11.515625 C 32.453125 11.5 32.453125 11.472656 32.472656 11.457031 L 32.660156 11.265625 C 32.667969 11.257812 32.679688 11.253906 32.691406 11.253906 C 32.703125 11.253906 32.714844 11.257812 32.722656 11.265625 L 33.039062 11.585938 C 33.058594 11.601562 33.058594 11.628906 33.039062 11.644531 Z M 32.511719 12.175781 L 32.320312 12.367188 C 32.3125 12.375 32.304688 12.378906 32.292969 12.378906 C 32.28125 12.378906 32.269531 12.375 32.261719 12.363281 L 31.941406 12.046875 C 31.925781 12.03125 31.925781 12.003906 31.941406 11.984375 L 32.132812 11.796875 C 32.140625 11.789062 32.152344 11.785156 32.160156 11.785156 C 32.171875 11.785156 32.183594 11.789062 32.191406 11.796875 L 32.511719 12.113281 C 32.527344 12.132812 32.527344 12.160156 32.511719 12.175781 Z M 31.984375 12.707031 L 31.792969 12.894531 C 31.785156 12.902344 31.773438 12.90625 31.761719 12.90625 C 31.75 12.90625 31.738281 12.902344 31.730469 12.894531 L 31.414062 12.578125 C 31.394531 12.558594 31.394531 12.53125 31.414062 12.515625 L 31.601562 12.324219 C 31.605469 12.320312 31.613281 12.316406 31.621094 12.316406 C 31.625 12.3125 31.628906 12.3125 31.632812 12.3125 C 31.644531 12.3125 31.65625 12.316406 31.664062 12.324219 L 31.980469 12.644531 C 32 12.660156 32 12.6875 31.984375 12.707031 Z M 31.210938 12.148438 L 29.710938 10.648438 C 29.636719 10.574219 29.636719 10.453125 29.710938 10.378906 L 30.121094 9.964844 L 31.042969 9.042969 L 32.074219 8.015625 L 32.109375 7.976562 C 32.148438 7.941406 32.199219 7.921875 32.246094 7.921875 C 32.296875 7.921875 32.347656 7.941406 32.382812 7.976562 L 33.304688 8.902344 L 33.308594 8.902344 L 33.882812 9.476562 C 33.957031 9.550781 33.957031 9.675781 33.882812 9.75 L 31.484375 12.148438 C 31.445312 12.1875 31.394531 12.203125 31.347656 12.203125 C 31.296875 12.203125 31.246094 12.1875 31.210938 12.148438 Z M 29.496094 9.597656 C 29.476562 9.582031 29.476562 9.554688 29.496094 9.539062 L 29.660156 9.371094 L 29.683594 9.347656 C 29.691406 9.339844 29.703125 9.335938 29.714844 9.335938 C 29.726562 9.335938 29.738281 9.339844 29.746094 9.347656 L 30.0625 9.667969 C 30.082031 9.683594 30.082031 9.710938 30.0625 9.730469 L 29.875 9.917969 C 29.867188 9.925781 29.855469 9.929688 29.84375 9.929688 C 29.832031 9.929688 29.820312 9.925781 29.8125 9.917969 Z M 29.535156 10.257812 L 29.34375 10.449219 C 29.335938 10.457031 29.324219 10.460938 29.316406 10.460938 C 29.304688 10.460938 29.292969 10.457031 29.285156 10.445312 L 28.964844 10.128906 C 28.949219 10.113281 28.949219 10.085938 28.964844 10.066406 L 29.15625 9.878906 C 29.164062 9.871094 29.171875 9.867188 29.183594 9.867188 C 29.195312 9.867188 29.207031 9.871094 29.214844 9.878906 L 29.535156 10.195312 C 29.550781 10.214844 29.550781 10.242188 29.535156 10.257812 Z M 30.023438 9.007812 L 30.214844 8.820312 C 30.222656 8.8125 30.234375 8.808594 30.242188 8.808594 C 30.253906 8.808594 30.265625 8.8125 30.273438 8.820312 L 30.59375 9.136719 C 30.609375 9.15625 30.609375 9.183594 30.59375 9.199219 L 30.402344 9.390625 C 30.394531 9.398438 30.382812 9.402344 30.375 9.402344 C 30.363281 9.402344 30.351562 9.398438 30.34375 9.386719 L 30.023438 9.070312 C 30.007812 9.054688 30.007812 9.027344 30.023438 9.007812 Z M 30.554688 8.480469 L 30.742188 8.289062 C 30.75 8.28125 30.761719 8.277344 30.773438 8.277344 C 30.785156 8.277344 30.796875 8.28125 30.804688 8.289062 L 31.121094 8.609375 C 31.140625 8.625 31.140625 8.652344 31.121094 8.667969 L 30.9375 8.855469 L 30.933594 8.859375 C 30.925781 8.867188 30.914062 8.871094 30.902344 8.871094 C 30.890625 8.871094 30.878906 8.867188 30.871094 8.859375 L 30.554688 8.542969 C 30.535156 8.523438 30.535156 8.496094 30.554688 8.480469 Z M 31.082031 7.949219 L 31.273438 7.761719 C 31.28125 7.753906 31.292969 7.75 31.300781 7.75 C 31.3125 7.75 31.324219 7.753906 31.332031 7.761719 L 31.652344 8.078125 C 31.667969 8.097656 31.667969 8.125 31.652344 8.140625 L 31.460938 8.332031 C 31.453125 8.339844 31.441406 8.34375 31.433594 8.34375 C 31.421875 8.34375 31.410156 8.339844 31.402344 8.328125 L 31.082031 8.011719 C 31.066406 7.996094 31.066406 7.96875 31.082031 7.949219 Z M 31.613281 7.421875 L 31.800781 7.230469 C 31.808594 7.222656 31.820312 7.21875 31.832031 7.21875 C 31.84375 7.21875 31.855469 7.222656 31.863281 7.230469 L 32.023438 7.394531 L 32.179688 7.550781 C 32.199219 7.566406 32.199219 7.59375 32.179688 7.613281 L 31.992188 7.800781 C 31.984375 7.808594 31.972656 7.8125 31.960938 7.8125 C 31.949219 7.8125 31.9375 7.808594 31.929688 7.800781 L 31.613281 7.484375 C 31.59375 7.464844 31.59375 7.4375 31.613281 7.421875 Z M 35.0625 9.625 L 34.96875 9.71875 C 34.960938 9.726562 34.949219 9.730469 34.9375 9.730469 C 34.925781 9.730469 34.914062 9.726562 34.90625 9.71875 L 34.589844 9.402344 C 34.570312 9.382812 34.570312 9.355469 34.589844 9.339844 L 34.679688 9.246094 L 34.535156 9.097656 L 34.3125 9.320312 C 34.273438 9.355469 34.226562 9.375 34.175781 9.375 C 34.125 9.375 34.078125 9.355469 34.039062 9.320312 L 32.539062 7.820312 C 32.464844 7.746094 32.464844 7.625 32.539062 7.550781 L 32.761719 7.328125 L 32.613281 7.179688 L 32.519531 7.273438 C 32.511719 7.28125 32.5 7.285156 32.492188 7.285156 C 32.480469 7.285156 32.46875 7.28125 32.460938 7.269531 L 32.167969 6.980469 L 32.140625 6.953125 C 32.125 6.9375 32.125 6.910156 32.140625 6.890625 L 32.234375 6.800781 L 32.132812 6.699219 L 30.242188 8.589844 L 29.667969 9.160156 L 28.429688 10.398438 L 28.53125 10.5 L 28.625 10.40625 C 28.632812 10.398438 28.644531 10.394531 28.65625 10.394531 C 28.667969 10.394531 28.679688 10.398438 28.6875 10.40625 L 29.003906 10.726562 C 29.023438 10.742188 29.023438 10.769531 29.003906 10.789062 L 28.914062 10.878906 L 29.058594 11.027344 L 29.28125 10.808594 C 29.320312 10.769531 29.367188 10.75 29.417969 10.75 C 29.46875 10.75 29.515625 10.769531 29.554688 10.808594 L 30.148438 11.402344 L 31.054688 12.304688 C 31.128906 12.382812 31.128906 12.503906 31.054688 12.578125 L 30.832031 12.800781 L 30.980469 12.949219 L 31.074219 12.855469 C 31.082031 12.847656 31.09375 12.84375 31.101562 12.84375 C 31.113281 12.84375 31.125 12.847656 31.132812 12.855469 L 31.453125 13.171875 C 31.46875 13.191406 31.46875 13.21875 31.453125 13.234375 L 31.359375 13.328125 L 31.460938 13.429688 L 32.734375 12.152344 L 34.472656 10.417969 L 35.160156 9.726562 L 35.0625 9.625 " fill-opacity="1" fill-rule="nonzero"/></g><g fill="#000000" fill-opacity="1"><g transform="translate(9.657866, 26.438218)"><g><path d="M 9.90625 -8.5 L 6.390625 0 L 3.328125 0 L -0.171875 -8.5 L 2.890625 -8.5 L 4.921875 -3.3125 L 7.0625 -8.5 Z M 9.90625 -8.5 "/></g></g></g><g fill="#000000" fill-opacity="1"><g transform="translate(17.714126, 26.438218)"><g/></g></g><g fill="#000000" fill-opacity="1"><g transform="translate(20.613754, 26.438218)"><g><path d="M 4.578125 -8.640625 C 5.984375 -8.640625 7.054688 -8.316406 7.796875 -7.671875 C 8.546875 -7.023438 8.921875 -6.039062 8.921875 -4.71875 L 8.921875 0 L 6.140625 0 L 6.140625 -1.09375 C 5.710938 -0.269531 4.878906 0.140625 3.640625 0.140625 C 2.984375 0.140625 2.410156 0.0234375 1.921875 -0.203125 C 1.441406 -0.429688 1.078125 -0.738281 0.828125 -1.125 C 0.585938 -1.519531 0.46875 -1.96875 0.46875 -2.46875 C 0.46875 -3.28125 0.773438 -3.90625 1.390625 -4.34375 C 2.003906 -4.789062 2.957031 -5.015625 4.25 -5.015625 L 5.9375 -5.015625 C 5.882812 -5.910156 5.285156 -6.359375 4.140625 -6.359375 C 3.734375 -6.359375 3.316406 -6.289062 2.890625 -6.15625 C 2.472656 -6.03125 2.117188 -5.851562 1.828125 -5.625 L 0.828125 -7.640625 C 1.296875 -7.960938 1.867188 -8.207031 2.546875 -8.375 C 3.222656 -8.550781 3.898438 -8.640625 4.578125 -8.640625 Z M 4.46875 -1.734375 C 4.8125 -1.734375 5.113281 -1.816406 5.375 -1.984375 C 5.632812 -2.148438 5.820312 -2.398438 5.9375 -2.734375 L 5.9375 -3.46875 L 4.65625 -3.46875 C 3.789062 -3.46875 3.359375 -3.175781 3.359375 -2.59375 C 3.359375 -2.332031 3.457031 -2.125 3.65625 -1.96875 C 3.851562 -1.8125 4.125 -1.734375 4.46875 -1.734375 Z M 4.46875 -1.734375 "/></g></g></g><g fill="#000000" fill-opacity="1"><g transform="translate(28.795403, 26.438218)"><g/></g></g><g fill="#000000" fill-opacity="1"><g transform="translate(31.69503, 26.438218)"><g><path d="M 9.890625 -8.5 L 9.890625 0 L 7.046875 0 L 7.046875 -0.90625 C 6.734375 -0.5625 6.359375 -0.300781 5.921875 -0.125 C 5.484375 0.0507812 5.019531 0.140625 4.53125 0.140625 C 3.4375 0.140625 2.5625 -0.179688 1.90625 -0.828125 C 1.25 -1.472656 0.921875 -2.445312 0.921875 -3.75 L 0.921875 -8.5 L 3.90625 -8.5 L 3.90625 -4.234375 C 3.90625 -3.597656 4.023438 -3.128906 4.265625 -2.828125 C 4.503906 -2.535156 4.851562 -2.390625 5.3125 -2.390625 C 5.78125 -2.390625 6.160156 -2.554688 6.453125 -2.890625 C 6.753906 -3.222656 6.90625 -3.726562 6.90625 -4.40625 L 6.90625 -8.5 Z M 9.890625 -8.5 "/></g></g></g><g fill="#000000" fill-opacity="1"><g transform="translate(40.879794, 26.438218)"><g/></g></g><g fill="#000000" fill-opacity="1"><g transform="translate(43.77942, 26.438218)"><g><path d="M 0.953125 -11.625 L 3.9375 -11.625 L 3.9375 0 L 0.953125 0 Z M 0.953125 -11.625 "/></g></g></g><g fill="#000000" fill-opacity="1"><g transform="translate(47.023865, 26.438218)"><g/></g></g><g fill="#000000" fill-opacity="1"><g transform="translate(49.923491, 26.438218)"><g><path d="M 6.8125 -0.34375 C 6.5625 -0.1875 6.253906 -0.0664062 5.890625 0.015625 C 5.535156 0.0976562 5.15625 0.140625 4.75 0.140625 C 3.644531 0.140625 2.789062 -0.128906 2.1875 -0.671875 C 1.59375 -1.210938 1.296875 -2.023438 1.296875 -3.109375 L 1.296875 -5.953125 L 0.0625 -5.953125 L 0.0625 -8.1875 L 1.296875 -8.1875 L 1.296875 -10.390625 L 4.28125 -10.390625 L 4.28125 -8.1875 L 6.21875 -8.1875 L 6.21875 -5.953125 L 4.28125 -5.953125 L 4.28125 -3.140625 C 4.28125 -2.835938 4.359375 -2.597656 4.515625 -2.421875 C 4.679688 -2.242188 4.898438 -2.15625 5.171875 -2.15625 C 5.515625 -2.15625 5.816406 -2.242188 6.078125 -2.421875 Z M 6.8125 -0.34375 "/></g></g></g></svg>